<?xml version="1.0" encoding="UTF-8"?>
<svg id="Capa_2" data-name="Capa 2" xmlns="http://www.w3.org/2000/svg" xmlns:xlink="http://www.w3.org/1999/xlink" viewBox="0 0 732.17 161.8">
  <defs>
    <style>
      .cls-1 {
        fill: url(#Degradado_sin_nombre_379);
      }

      .cls-2 {
        letter-spacing: -.02em;
      }

      .cls-3 {
        fill: url(#Degradado_sin_nombre_379-2);
      }

      .cls-4 {
        fill: #444;
        font-family: PTSans-Regular, 'PT Sans';
        font-size: 28.21px;
        stroke: #444;
        stroke-miterlimit: 10;
        stroke-width: .25px;
      }

      .cls-5 {
        letter-spacing: -.02em;
      }

      .cls-6 {
        fill: url(#Degradado_sin_nombre_379-3);
      }

      .cls-7 {
        letter-spacing: -.07em;
      }

      .cls-8 {
        fill: #036;
      }

      .cls-9 {
        letter-spacing: -.03em;
      }

      .cls-10 {
        letter-spacing: -.03em;
      }
    </style>
    <linearGradient id="Degradado_sin_nombre_379" data-name="Degradado sin nombre 379" x1="49.67" y1="183.22" x2="166.21" y2="-18.64" gradientUnits="userSpaceOnUse">
      <stop offset=".28" stop-color="#036"/>
      <stop offset=".63" stop-color="#005a73"/>
      <stop offset="1" stop-color="teal"/>
    </linearGradient>
    <linearGradient id="Degradado_sin_nombre_379-2" data-name="Degradado sin nombre 379" x1="37.73" y1="141.37" x2="112.45" y2="11.96" xlink:href="#Degradado_sin_nombre_379"/>
    <linearGradient id="Degradado_sin_nombre_379-3" data-name="Degradado sin nombre 379" x1="139.84" y1="151.35" x2="169.98" y2="99.14" xlink:href="#Degradado_sin_nombre_379"/>
  </defs>
  <g id="Capa_1-2" data-name="Capa 1">
    <g>
      <path class="cls-1" d="M54.6,116.91l-18.15,37.79-36.45-.16,58.5-62.24c-2.71-6.08-.71-12.55,3.93-16.76,4.87-4.41,12.36-4.87,17.9-1.23,5.44,3.57,7.85,9.85,6.29,17.18l8.05,6.56,18.16-20.59,43.27-46.72-15.18-13.67L198.49,0l-10.91,59.04-16.31-14.41-58.11,62.75c2.16,6.33.46,12.66-4.39,16.72-4.91,4.1-12.15,4.23-17.25,1.09-5.64-3.48-8.36-9.68-6.61-16.88l-6.44-6.67-10.32.16-13.55,15.12Z"/>
      <path class="cls-3" d="M90.29,39.69l-11.96,25.64c-7.47-1.84-15.09-.11-20.89,5.13-5.24,4.73-8.1,12.02-6.75,20.26L14.37,127.88,77.55,7.31l26.54-.18,22.93,44.68-20.47,22.1-16.26-34.22Z"/>
      <polygon class="cls-6" points="145.75 154.76 122.67 107.27 144.12 84.2 180.56 154.62 145.75 154.76"/>
    </g>
    <g>
      <path class="cls-8" d="M627.72,121.17l-13.27-19.35-15.08-.23v19.44s-16.96.03-16.96.03l.04-68.86,39.39.51c11.4.15,20.26,9.27,22.15,18.69,2.37,11.83-2.67,22.44-13.54,27.24l16.02,22.37-18.75.16ZM617.18,87.8c7.2-.2,10.53-6.1,10.18-11.9-.31-5.17-4.28-9.86-10.57-10.02l-17.4-.42.04,22.82,17.75-.49Z"/>
      <polygon class="cls-8" points="359.11 52.36 376.46 52.15 345.65 120.93 328.58 121.02 297.61 52.33 315.89 52.05 337.54 100.52 359.11 52.36"/>
      <polygon class="cls-8" points="548.92 120.95 532.04 121.1 532.02 65.76 508.79 65.72 508.85 52.18 571.83 52.15 572.09 65.66 548.84 65.79 548.92 120.95"/>
      <polygon class="cls-8" points="513.5 107.59 513.75 121.05 460.72 121.05 460.72 52.21 477.71 52.21 477.77 107.6 513.5 107.59"/>
      <path class="cls-8" d="M279.1,106.55l-33.89-.08-6.31,14.57-17.56-.2,31.92-68.68,17.58-.08,32.96,68.83-18.24.2-6.46-14.55ZM273.12,93.63l-11.25-25.44-10.96,25.51,22.22-.07Z"/>
      <path class="cls-8" d="M707.66,106.6l-34.22-.14-6.3,14.66-17.5-.24,32.08-68.86,17.52.22,32.79,68.67-18.16.19-6.22-14.49ZM701.42,93.62l-10.91-25.21-11.18,25.32,22.1-.11Z"/>
      <path class="cls-8" d="M428.53,106.64l-34.18-.18-6.29,14.55-17.4-.1,31.66-68.69,17.43-.15,33.22,68.81-18.34.28-6.1-14.52ZM422.31,93.57l-11.18-24.98-11.2,25.17,22.38-.18Z"/>
    </g>
    <text class="cls-4" transform="translate(221.34 154.76)"><tspan x="0" y="0">FINAN</tspan><tspan class="cls-2" x="77.28" y="0">Z</tspan><tspan x="92.12" y="0">AS INTELIGENTES &amp; </tspan><tspan class="cls-10" x="347.09" y="0">C</tspan><tspan x="362.47" y="0">ONE</tspan><tspan class="cls-9" x="415.88" y="0">C</tspan><tspan class="cls-7" x="431.2" y="0">T</tspan><tspan x="444.96" y="0">A</tspan><tspan class="cls-5" x="461.47" y="0">D</tspan><tspan x="479.22" y="0">AS</tspan></text>
  </g>
</svg>